<svg xmlns="http://www.w3.org/2000/svg" width="326.6175231933594" height="307.3019104003906" viewBox="-83.68048095703125 -98.50942993164062 326.6175231933594 307.3019104003906"><title>Neo4j Graph Visualization</title><desc>Created using Neo4j (http://www.neo4j.com/)</desc><g class="layer relationships"><g class="relationship" transform="translate(-47.18048536513333 172.29248714475085) rotate(326.04786398833124)"><path class="outline" fill="#A5ABB6" stroke="none" d="M 32.5 0.5 L 42.26374926023102 0.5 L 42.26374926023102 -0.5 L 32.5 -0.5 Z M 99.37703051023102 0.5 L 109.14077977046205 0.5 L 109.14077977046205 3.5 L 116.14077977046205 0 L 109.14077977046205 -3.5 L 109.14077977046205 -0.5 L 99.37703051023102 -0.5 Z"/><text text-anchor="middle" pointer-events="none" font-size="10" fill="#000000" x="70.82038988523102" y="4" font-family="sans-serif">DIRECTED</text></g><g class="relationship" transform="translate(206.4370431179692 165.2962658329861) rotate(210.256456242237)"><path class="outline" fill="#A5ABB6" stroke="none" d="M 32.5 0.5 L 43.378965196688085 0.5 L 43.378965196688085 -0.5 L 32.5 -0.5 Z M 100.49224644668809 0.5 L 111.37121164337617 0.5 L 111.37121164337617 3.5 L 118.37121164337617 0 L 111.37121164337617 -3.5 L 111.37121164337617 -0.5 L 100.49224644668809 -0.5 Z"/><text text-anchor="middle" pointer-events="none" font-size="10" fill="#000000" x="71.93560582168809" y="4" transform="rotate(180 71.93560582168809 0)" font-family="sans-serif">DIRECTED</text></g><g class="relationship" transform="translate(70.02772651013242 -62.009431415098426) rotate(447.69482051081866)"><path class="outline" fill="#A5ABB6" stroke="none" d="M 32.5 0.5 L 43.6476329230492 0.5 L 43.6476329230492 -0.5 L 32.5 -0.5 Z M 100.7609141730492 0.5 L 111.9085470960984 0.5 L 111.9085470960984 3.5 L 118.9085470960984 0 L 111.9085470960984 -3.5 L 111.9085470960984 -0.5 L 100.7609141730492 -0.5 Z"/><text text-anchor="middle" pointer-events="none" font-size="10" fill="#000000" x="72.2042735480492" y="4" font-family="sans-serif">DIRECTED</text></g></g><g class="layer nodes"><g class="node" transform="translate(-47.18048536513333,172.29248714475085)"><circle class="outline" cx="0" cy="0" r="32.5" fill="#57C7E3" stroke="#23b3d7" stroke-width="2px"/><text text-anchor="middle" pointer-events="none" font-family="sans-serif" dy="2.03125" font-size="32.5" fill="#2A2C34"/><text text-anchor="middle" pointer-events="none" font-family="sans-serif" dy="2.03125" font-size="32.5" fill="#2A2C34"/><text text-anchor="middle" pointer-events="none" x="0" y="0" font-size="12" fill="#2A2C34" font-family="sans-serif"> Tom</text><text text-anchor="middle" pointer-events="none" x="0" y="12" font-size="12" fill="#2A2C34" font-family="sans-serif"> Tykwer</text></g><g class="node" transform="translate(76.11769906093954,89.2765903056206)"><circle class="outline" cx="0" cy="0" r="32.5" fill="#F79767" stroke="#f36924" stroke-width="2px"/><text text-anchor="middle" pointer-events="none" font-family="sans-serif" dy="2.03125" font-size="32.5" fill="#FFFFFF"/><text text-anchor="middle" pointer-events="none" font-family="sans-serif" dy="2.03125" font-size="32.5" fill="#FFFFFF"/><text text-anchor="middle" pointer-events="none" x="0" y="0" font-size="12" fill="#FFFFFF" font-family="sans-serif"> Cloud</text><text text-anchor="middle" pointer-events="none" x="0" y="12" font-size="12" fill="#FFFFFF" font-family="sans-serif"> Atlas</text></g><g class="node" transform="translate(206.4370431179692,165.2962658329861)"><circle class="outline" cx="0" cy="0" r="32.5" fill="#57C7E3" stroke="#23b3d7" stroke-width="2px"/><text text-anchor="middle" pointer-events="none" font-family="sans-serif" dy="2.03125" font-size="32.5" fill="#2A2C34"/><text text-anchor="middle" pointer-events="none" font-family="sans-serif" dy="2.03125" font-size="32.5" fill="#2A2C34"/><text text-anchor="middle" pointer-events="none" x="0" y="0" font-size="12" fill="#2A2C34" font-family="sans-serif"> Lana</text><text text-anchor="middle" pointer-events="none" x="0" y="12" font-size="12" fill="#2A2C34" font-family="sans-serif"> Wachow…</text></g><g class="node" transform="translate(70.02772651013242,-62.009431415098426)"><circle class="outline" cx="0" cy="0" r="32.5" fill="#57C7E3" stroke="#23b3d7" stroke-width="2px"/><text text-anchor="middle" pointer-events="none" font-family="sans-serif" dy="2.03125" font-size="32.5" fill="#2A2C34"/><text text-anchor="middle" pointer-events="none" font-family="sans-serif" dy="2.03125" font-size="32.5" fill="#2A2C34"/><text text-anchor="middle" pointer-events="none" x="0" y="0" font-size="12" fill="#2A2C34" font-family="sans-serif"> Lilly</text><text text-anchor="middle" pointer-events="none" x="0" y="12" font-size="12" fill="#2A2C34" font-family="sans-serif"> Wachow…</text></g></g></svg>