<svg xmlns="http://www.w3.org/2000/svg" width="325.9358215332031" height="158.0869903564453" viewBox="-374.0527648925781 26.877029418945312 325.9358215332031 158.0869903564453"><title>Neo4j Graph Visualization</title><desc>Created using Neo4j (http://www.neo4j.com/)</desc><g class="layer relationships"><g class="relationship" transform="translate(-266.70960746927074 105.3477186275306) rotate(360.3646116970178)"><path class="outline" fill="#A5ABB6" stroke="none" d="M 15.816987298107785,28.395825622994256 L 16.683012701892224,27.895825622994256 A 84.27152368841163 84.27152368841163 0 0 0 59.999246120211495,64.63765689943943 L 59.64722866979548,65.57365033670413 A 85.27152368841163 85.27152368841163 0 0 1 15.816987298107785,28.395825622994256 Z M 114.40899240605344,67.36234686581466 L 114.11880526849515,66.40537694716741 A 84.27152368841163 84.27152368841163 0 0 0 159.74036646715038,32.56854203468718 L 157.245713337539,30.902197003512594 L 164.0442803948263,27.02540890412309 L 163.06657063996553,34.790335409586625 L 160.57191751035415,33.12399037841204 A 85.27152368841163 85.27152368841163 0 0 1 114.40899240605344,67.36234686581466"/><text text-anchor="middle" pointer-events="none" font-size="10" fill="#000000" x="86.89685644483848" y="74.4864027956063" font-family="sans-serif">ACTED_IN</text></g><g class="relationship" transform="translate(-266.70960746927074 105.3477186275306) rotate(360.3646116970178)"><path class="outline" fill="#A5ABB6" stroke="none" d="M 27.89582562299426,16.683012701892217 L 28.39582562299426,15.816987298107778 A 122.5369348173692 122.5369348173692 0 0 0 58.19255027939015,28.123363091365377 L 57.9357155315715,29.089818425208037 A 123.5369348173692 123.5369348173692 0 0 1 27.89582562299426,16.683012701892217 Z M 116.93072172295106,30.187204349389205 L 116.71000693241832,29.21186595619426 A 122.5369348173692 122.5369348173692 0 0 0 146.9437905096045,18.0221378083878 L 145.54145012390865,15.370074188742448 L 153.36566235305963,15.192020845038375 L 148.81357769053233,21.558222634581604 L 147.41123730483648,18.906159014936254 A 123.5369348173692 123.5369348173692 0 0 1 116.93072172295106,30.187204349389205"/><text text-anchor="middle" pointer-events="none" font-size="10" fill="#000000" x="87.37603752911151" y="36.71254319784242" font-family="sans-serif">REVIEWED</text></g><g class="relationship" transform="translate(-266.70960746927074 105.3477186275306) rotate(360.3646116970178)"><path class="outline" fill="#A5ABB6" stroke="none" d="M 32.5 0.5 L 55.93489453294214 0.5 L 55.93489453294214 -0.5 L 32.5 -0.5 Z M 119.16145703294214 0.5 L 142.59635156588428 0.5 L 142.59635156588428 3.5 L 149.59635156588428 0 L 142.59635156588428 -3.5 L 142.59635156588428 -0.5 L 119.16145703294214 -0.5 Z"/><text text-anchor="middle" pointer-events="none" font-size="10" fill="#000000" x="87.54817578294214" y="4" font-family="sans-serif">PRODUCED</text></g><g class="relationship" transform="translate(-266.70960746927074 105.3477186275306) rotate(360.3646116970178)"><path class="outline" fill="#A5ABB6" stroke="none" d="M 27.89582562299426,-16.683012701892217 L 28.39582562299426,-15.816987298107778 A 122.5369348173692 122.5369348173692 0 0 1 66.01397054267335,-29.929840403443848 L 65.82096487850968,-30.911038045919994 A 123.5369348173692 123.5369348173692 0 0 0 27.89582562299426,-16.683012701892217 Z M 108.98319643387106,-31.713913211513642 L 108.82681483487191,-30.72621649921048 A 122.5369348173692 122.5369348173692 0 0 1 146.9437905096045,-18.0221378083878 L 145.54145012390865,-15.370074188742448 L 153.36566235305963,-15.192020845038375 L 148.81357769053233,-21.558222634581604 L 147.41123730483648,-18.906159014936254 A 123.5369348173692 123.5369348173692 0 0 0 108.98319643387106,-31.713913211513642"/><text text-anchor="middle" pointer-events="none" font-size="10" fill="#000000" x="87.3760375291115" y="-28.71254319784242" font-family="sans-serif">WROTE</text></g><g class="relationship" transform="translate(-266.70960746927074 105.3477186275306) rotate(450.36461169701784)"><path class="outline" fill="#A5ABB6" stroke="none" d="M 8.894581878976458 31.263179831843463 L 19.247343683077286 69.90021288340618 A 19.926316451256394 19.926316451256394 0 1 1 -19.247343683077286 69.90021288340618 L -10.706315194694104 38.024660615866935 L -6.842611889537831 39.05993679627702 L -8.411618965831924 31.392589354394723 L -13.60409267356131 37.248203480559376 L -9.740389368405035 38.283479660969455 L -18.28141785678822 70.15903192850871 A 18.926316451256394 18.926316451256394 0 1 0 18.28141785678822 70.15903192850871 L 7.92865605268739 31.521998876945982 Z"/><text text-anchor="middle" pointer-events="none" font-size="10" fill="#000000" x="0" y="105.98383953098741" transform="rotate(180 0 101.98383953098741)" font-family="sans-serif">FOLLOWS</text></g><g class="relationship" transform="translate(-266.70960746927074 105.3477186275306) rotate(360.3646116970178)"><path class="outline" fill="#A5ABB6" stroke="none" d="M 15.816987298107785,-28.395825622994256 L 16.683012701892224,-27.895825622994256 A 84.27152368841163 84.27152368841163 0 0 1 59.228315547209,-64.34340157587727 L 58.867149922661795,-65.27590326040414 A 85.27152368841163 85.27152368841163 0 0 0 15.816987298107785,-28.395825622994256 Z M 115.20683845284937,-67.11613992280354 L 114.90729477969413,-66.16205733315385 A 84.27152368841163 84.27152368841163 0 0 1 159.74036646715038,-32.56854203468718 L 157.245713337539,-30.902197003512594 L 164.0442803948263,-27.02540890412309 L 163.06657063996553,-34.790335409586625 L 160.57191751035415,-33.12399037841204 A 85.27152368841163 85.27152368841163 0 0 0 115.20683845284937,-67.11613992280354"/><text text-anchor="middle" pointer-events="none" font-size="10" fill="#000000" x="86.89685644483845" y="-66.4864027956063" font-family="sans-serif">DIRECTED</text></g></g><g class="layer nodes"><g class="node" transform="translate(-84.61694301014383,106.50651273432283)"><circle class="outline" cx="0" cy="0" r="32.5" fill="#F79767" stroke="#f36924" stroke-width="2px"/><text text-anchor="middle" pointer-events="none" font-family="sans-serif" dy="2.03125" font-size="32.5" fill="#FFFFFF"/><text text-anchor="middle" pointer-events="none" x="0" y="6" font-size="12" fill="#FFFFFF" font-family="sans-serif"> Movie</text></g><g class="node" transform="translate(-266.70960746927074,105.3477186275306)"><circle class="outline" cx="0" cy="0" r="32.5" fill="#57C7E3" stroke="#23b3d7" stroke-width="2px"/><text text-anchor="middle" pointer-events="none" font-family="sans-serif" dy="2.03125" font-size="32.5" fill="#2A2C34"/><text text-anchor="middle" pointer-events="none" x="0" y="6" font-size="12" fill="#2A2C34" font-family="sans-serif"> Person</text></g></g></svg>